<svg width="18" height="17" viewBox="0 0 18 17" fill="none" xmlns="http://www.w3.org/2000/svg">
<g clip-path="url(#clip0)">
<path d="M6.54004 14.7588L6.04199 15.7549L6.54004 16.751C7.09018 16.751 7.53613 16.305 7.53613 15.7549C7.53613 15.2047 7.09018 14.7588 6.54004 14.7588Z" fill="#7C7676"/>
<path d="M5.54395 15.7549C5.54395 16.305 5.9899 16.751 6.54004 16.751V14.7588C5.9899 14.7588 5.54395 15.2047 5.54395 15.7549Z" fill="#7C7676"/>
<path d="M15.0732 14.7588L14.5752 15.7549L15.0732 16.751C15.6234 16.751 16.0693 16.305 16.0693 15.7549C16.0693 15.2047 15.6234 14.7588 15.0732 14.7588Z" fill="#7C7676"/>
<path d="M14.0771 15.7549C14.0771 16.305 14.5231 16.751 15.0732 16.751V14.7588C14.5231 14.7588 14.0771 15.2047 14.0771 15.7549Z" fill="#7C7676"/>
<path d="M16.0693 12.7666H15.0732V13.7627H16.0693C16.3444 13.7627 16.5674 13.5397 16.5674 13.2646C16.5674 12.9896 16.3444 12.7666 16.0693 12.7666Z" fill="#7C7676"/>
<path d="M9.81055 10.7744H10.8066C11.3568 10.7744 11.8027 10.3284 11.8027 9.77832H10.8066L9.81055 10.7744Z" fill="#7C7676"/>
<path d="M15.0732 12.7663H5.0459C4.77128 12.7663 4.54785 12.5429 4.54785 12.2683C4.54785 12.0892 4.645 11.923 4.80172 11.8343L6.67152 10.7741H9.81055C10.3607 10.7741 10.8066 10.3281 10.8066 9.77803H6.92682L4.9685 2.12139C4.85485 1.67627 4.62525 1.28546 4.31706 0.977539H3.61265V1.68198C3.79753 1.86665 3.93525 2.10103 4.00345 2.36802L5.96327 10.0306L4.31071 10.9676C3.84258 11.2327 3.55176 11.731 3.55176 12.2683C3.55176 13.0921 4.22203 13.7624 5.0459 13.7624H15.0732C15.3483 13.7624 15.5713 13.5394 15.5713 13.2644C15.5713 12.9893 15.3483 12.7663 15.0732 12.7663Z" fill="#7C7676"/>
<path d="M2.55566 0.249023H1.55957C1.28452 0.249023 1.06152 0.472016 1.06152 0.74707C1.06152 1.02213 1.28452 1.24512 1.55957 1.24512H2.55566C2.9633 1.24512 3.33949 1.40941 3.61265 1.68227L4.31709 0.977832C3.86184 0.522949 3.23493 0.249023 2.55566 0.249023Z" fill="#7C7676"/>
<path d="M6.54004 14.5098C5.85346 14.5098 5.29492 15.0683 5.29492 15.7549C5.29492 16.4415 5.85346 17 6.54004 17C7.22661 17 7.78516 16.4415 7.78516 15.7549C7.78516 15.0683 7.22661 14.5098 6.54004 14.5098ZM6.54004 16.502C6.12812 16.502 5.79297 16.1668 5.79297 15.7549C5.79297 15.343 6.12812 15.0078 6.54004 15.0078C6.95196 15.0078 7.28711 15.343 7.28711 15.7549C7.28711 16.1668 6.95196 16.502 6.54004 16.502Z" fill="#7C7676"/>
<path d="M6.54004 16.0039C6.67757 16.0039 6.78906 15.8924 6.78906 15.7549C6.78906 15.6174 6.67757 15.5059 6.54004 15.5059C6.40251 15.5059 6.29102 15.6174 6.29102 15.7549C6.29102 15.8924 6.40251 16.0039 6.54004 16.0039Z" fill="#7C7676"/>
<path d="M15.0732 16.0039C15.2108 16.0039 15.3223 15.8924 15.3223 15.7549C15.3223 15.6174 15.2108 15.5059 15.0732 15.5059C14.9357 15.5059 14.8242 15.6174 14.8242 15.7549C14.8242 15.8924 14.9357 16.0039 15.0732 16.0039Z" fill="#7C7676"/>
<path d="M15.0732 14.5098C14.3867 14.5098 13.8281 15.0683 13.8281 15.7549C13.8281 16.4415 14.3867 17 15.0732 17C15.7598 17 16.3184 16.4415 16.3184 15.7549C16.3184 15.0683 15.7598 14.5098 15.0732 14.5098ZM15.0732 16.502C14.6613 16.502 14.3262 16.1668 14.3262 15.7549C14.3262 15.343 14.6613 15.0078 15.0732 15.0078C15.4852 15.0078 15.8203 15.343 15.8203 15.7549C15.8203 16.1668 15.4852 16.502 15.0732 16.502Z" fill="#7C7676"/>
<path d="M4.92457 12.0512L6.7372 11.0234H10.8066C11.4079 11.0234 11.911 10.595 12.0268 10.0273H14.6203C15.4172 10.0273 16.1116 9.48812 16.3091 8.71605L17.8047 2.86739C17.8238 2.79285 17.8073 2.71372 17.7601 2.65296C17.713 2.5922 17.6404 2.55664 17.5635 2.55664H5.33682L5.20982 2.06009C4.90004 0.847145 3.80862 0 2.55566 0H1.55957C1.14765 0 0.8125 0.335152 0.8125 0.74707C0.8125 1.15899 1.14765 1.49414 1.55957 1.49414H2.55566C3.12533 1.49414 3.62145 1.87896 3.7622 2.43004L5.67483 9.90821L4.188 10.7512C3.64197 11.0604 3.30273 11.6418 3.30273 12.2686C3.30273 13.2297 4.08473 14.0117 5.0459 14.0117H16.0693C16.4813 14.0117 16.8164 13.6766 16.8164 13.2646C16.8164 12.8527 16.4813 12.5176 16.0693 12.5176H5.0459C4.90857 12.5176 4.79688 12.4059 4.79688 12.2686C4.79688 12.1791 4.84575 12.0958 4.92457 12.0512ZM14.1549 7.20508H12.6246L12.718 5.37891H14.4351L14.1549 7.20508ZM14.939 5.37891H16.6484L16.1814 7.20508H14.6588L14.939 5.37891ZM14.0785 7.70312L13.7983 9.5293H12.5058L12.5992 7.70312H14.0785ZM12.1259 7.20508H10.593L10.4996 5.37891H12.2193L12.1259 7.20508ZM12.7435 4.88086L12.8368 3.05469H14.7917L14.5115 4.88086H12.7435ZM12.2448 4.88086H10.4741L10.3807 3.05469H12.3381L12.2448 4.88086ZM9.97543 4.88086H8.98973C8.85217 4.88086 8.74071 4.99232 8.74071 5.12988C8.74071 5.26744 8.85217 5.37891 8.98973 5.37891H10.0009L10.0943 7.20508H8.56407L7.92713 3.05469H9.88197L9.97543 4.88086ZM8.06021 7.20508H6.52569L6.05863 5.37891H7.77994L8.06021 7.20508ZM8.13664 7.70312L8.41691 9.5293H7.12016L6.6531 7.70312H8.13664ZM8.92077 9.5293L8.6405 7.70312H10.1198L10.2133 9.5293H8.92077ZM10.712 9.5293L10.6185 7.70312H12.1005L12.0071 9.5293H10.712ZM15.8266 8.59267C15.6855 9.14411 15.1895 9.5293 14.6203 9.5293H14.3022L14.5824 7.70312H16.054L15.8266 8.59267ZM16.7758 4.88086H15.0154L15.2956 3.05469H17.2428L16.7758 4.88086ZM7.42328 3.05469L7.70354 4.88086H5.93129L5.46422 3.05469H7.42328ZM2.55566 0.996094H1.55957C1.42224 0.996094 1.31055 0.884398 1.31055 0.74707C1.31055 0.609742 1.42224 0.498047 1.55957 0.498047H2.55566C3.07911 0.498047 3.56783 0.679037 3.95478 0.987926L3.59974 1.343C3.30612 1.12363 2.94314 0.996094 2.55566 0.996094ZM5.0459 13.0156H16.0693C16.2067 13.0156 16.3184 13.1273 16.3184 13.2646C16.3184 13.402 16.2067 13.5137 16.0693 13.5137H5.0459C4.35932 13.5137 3.80078 12.9551 3.80078 12.2686C3.80078 11.8209 4.0432 11.4055 4.43353 11.1845L6.08609 10.2475C6.18384 10.1921 6.23235 10.0781 6.20449 9.9692L4.24471 2.30672C4.18683 2.08008 4.0858 1.87375 3.95209 1.69505L4.30723 1.33991C4.50104 1.58236 4.64666 1.86764 4.72728 2.1834L6.68557 9.84004C6.71376 9.95025 6.81304 10.0274 6.92682 10.0274H11.511C11.4082 10.3172 11.1313 10.5254 10.8066 10.5254H6.67152C6.62846 10.5254 6.58616 10.5366 6.54871 10.5578L4.67907 11.6179C4.44456 11.7506 4.29883 11.9999 4.29883 12.2686C4.29883 12.6805 4.63398 13.0156 5.0459 13.0156Z" fill="#7C7676"/>
</g>
<defs>
<clipPath id="clip0">
<rect width="17" height="17" fill="white" transform="translate(0.8125)"/>
</clipPath>
</defs>
</svg>
