<svg width="18" height="17" viewBox="0 0 18 17" fill="none" xmlns="http://www.w3.org/2000/svg">
<path d="M8.625 0C3.93063 0 0.125 3.80563 0.125 8.5C0.125 13.1944 3.93063 17 8.625 17C13.3194 17 17.125 13.1944 17.125 8.5C17.1197 3.80785 13.3172 0.00525718 8.625 0ZM15.9763 11.4778L13.559 11.8949C13.8357 10.8801 13.9851 9.8349 14.0038 8.78333H16.5513C16.5193 9.70832 16.3247 10.6204 15.9763 11.4778ZM0.698722 8.78333H3.24623C3.26491 9.8349 3.41432 10.8801 3.69102 11.8949L1.27369 11.4778C0.925334 10.6204 0.73068 9.70832 0.698722 8.78333ZM1.27369 5.52223L3.69102 5.10512C3.41432 6.11989 3.26491 7.1651 3.24623 8.21667H0.698722C0.73068 7.29168 0.925334 6.37957 1.27369 5.52223ZM8.90833 4.54924C9.92642 4.56225 10.942 4.65494 11.9457 4.82663L12.9458 4.99915C13.2531 6.04477 13.4184 7.12691 13.4374 8.21667H8.90833V4.54924ZM12.0423 4.26812C11.0068 4.09118 9.9588 3.99558 8.90833 3.98258V0.582577C10.5327 0.738631 11.9437 2.22585 12.7433 4.39028L12.0423 4.26812ZM8.34167 3.98258C7.2912 3.99558 6.24351 4.09118 5.20798 4.26812L4.50671 4.38945C5.30635 2.22447 6.71734 0.736694 8.34167 0.581331V3.98258ZM5.30455 4.82663C6.30811 4.65494 7.32358 4.56225 8.34167 4.54924V8.21667H3.81262C3.83158 7.12691 3.9969 6.04477 4.30417 4.99915L5.30455 4.82663ZM3.81262 8.78333H8.34167V12.4508C7.32358 12.4378 6.30798 12.3451 5.30427 12.1734L4.30417 12.0009C3.9969 10.9552 3.83158 9.87309 3.81262 8.78333ZM5.20771 12.7319C6.24323 12.9091 7.29106 13.0051 8.34167 13.0189V16.4189C6.71734 16.2628 5.30635 14.7755 4.50671 12.6111L5.20771 12.7319ZM8.90833 13.0189C9.9588 13.0051 11.0065 12.9091 12.042 12.7319L12.7433 12.6105C11.9437 14.7755 10.5327 16.2633 8.90833 16.4187V13.0189ZM11.9455 12.1734C10.9419 12.3451 9.92642 12.4378 8.90833 12.4508V8.78333H13.4374C13.4184 9.87309 13.2531 10.9552 12.9458 12.0009L11.9455 12.1734ZM14.0038 8.21667C13.9851 7.1651 13.8357 6.11989 13.559 5.10512L15.9763 5.52223C16.3247 6.37957 16.5193 7.29168 16.5513 8.21667H14.0038ZM15.6897 4.89774L13.3725 4.49792C12.9559 3.13894 12.1766 1.91928 11.1183 0.970361C13.0973 1.63083 14.7385 3.04071 15.6897 4.89774ZM6.13172 0.970361C5.07337 1.91928 4.29407 3.13894 3.87751 4.49792L1.56034 4.89774C2.51147 3.04071 4.15268 1.63083 6.13172 0.970361ZM1.56034 12.1023L3.87751 12.5021C4.29407 13.8611 5.07337 15.0807 6.13172 16.0296C4.15268 15.3692 2.51147 13.9593 1.56034 12.1023ZM11.1183 16.0296C12.1766 15.0807 12.9559 13.8611 13.3725 12.5021L15.6897 12.1023C14.7385 13.9593 13.0973 15.3692 11.1183 16.0296Z" fill="#7C7676"/>
</svg>
